<svg id="Layer_1" data-name="Layer 1" xmlns="http://www.w3.org/2000/svg" xmlns:xlink="http://www.w3.org/1999/xlink" viewBox="0 0 114 32">
  <defs>
    <style>
      .cls-1 {
        fill: none;
      }

      .cls-2, .cls-7 {
        fill: #292e3d;
      }

      .cls-2 {
        fill-rule: evenodd;
      }

      .cls-3 {
        clip-path: url(#clip-path);
      }

      .cls-4 {
        fill: url(#linear-gradient);
      }

      .cls-5 {
        fill: url(#linear-gradient-2);
      }

      .cls-6 {
        fill: #fff;
      }
    </style>
    <clipPath id="clip-path" transform="translate(2.03 2.03)">
      <circle class="cls-1" cx="14" cy="14" r="14"/>
    </clipPath>
    <linearGradient id="linear-gradient" x1="-617.83" y1="394.18" x2="-617.6" y2="393.9" gradientTransform="matrix(77.42, 0, 0, -77.42, 47839.11, 30522)" gradientUnits="userSpaceOnUse">
      <stop offset="0" stop-color="#31ef7a"/>
      <stop offset="1" stop-color="#afee71"/>
    </linearGradient>
    <linearGradient id="linear-gradient-2" x1="-618.32" y1="394.64" x2="-618.59" y2="394.37" gradientTransform="matrix(85.87, 0, 0, -85.86, 53123.82, 33884.11)" gradientUnits="userSpaceOnUse">
      <stop offset="0" stop-color="#00bf2d" stop-opacity="0.84"/>
      <stop offset="1" stop-color="#4bce53" stop-opacity="0"/>
    </linearGradient>
  </defs>
  <title>NavbarLogo</title>
  <path id="Path_13791" data-name="Path 13791" class="cls-2" d="M110.68,18.78a1.24,1.24,0,0,1,.94.37,1.62,1.62,0,0,1,.34,1.12,1.63,1.63,0,0,1-.34,1.13,1.23,1.23,0,0,1-.94.36h-7A1.61,1.61,0,0,1,101.9,20V8a1.71,1.71,0,0,1,.47-1.29,1.73,1.73,0,0,1,1.3-.46h7a1.25,1.25,0,0,1,.95.36,1.64,1.64,0,0,1,.35,1.13,1.59,1.59,0,0,1-.35,1.11,1.22,1.22,0,0,1-.95.38h-4.76v3.2h4a1.18,1.18,0,0,1,.9.38,1.52,1.52,0,0,1,.35,1.1,1.53,1.53,0,0,1-.35,1.1,1.17,1.17,0,0,1-.9.37h-4v3.45Zm-12.47,0a1.24,1.24,0,0,1,.94.37,1.62,1.62,0,0,1,.34,1.12,1.63,1.63,0,0,1-.34,1.13,1.23,1.23,0,0,1-.94.36h-7A1.61,1.61,0,0,1,89.43,20V8a1.71,1.71,0,0,1,.47-1.29,1.73,1.73,0,0,1,1.3-.46h7a1.24,1.24,0,0,1,.95.36,1.64,1.64,0,0,1,.35,1.13,1.59,1.59,0,0,1-.35,1.11,1.22,1.22,0,0,1-.95.38H93.39v3.2h4a1.18,1.18,0,0,1,.9.38,1.56,1.56,0,0,1,.34,1.1,1.57,1.57,0,0,1-.34,1.1,1.17,1.17,0,0,1-.9.37h-4v3.45ZM68.43,7.63a2.24,2.24,0,0,1,.51-.78,2.18,2.18,0,0,1,.92-.53,4.58,4.58,0,0,1,1.43-.2,4.67,4.67,0,0,1,1.23.16A2.29,2.29,0,0,1,74,7.44a4.65,4.65,0,0,1,.37,1l2,7.28c.07.27.14.53.2.8s.1.49.14.68.09.46.14.66h0l.13-.66c0-.2.09-.42.15-.68s.11-.52.19-.79l2-7.27a4.33,4.33,0,0,1,.38-1,2.12,2.12,0,0,1,.59-.71,2.41,2.41,0,0,1,.87-.45,4.23,4.23,0,0,1,1.23-.15,4.46,4.46,0,0,1,1.4.19,2.33,2.33,0,0,1,.9.52,2.33,2.33,0,0,1,.51.8,4.68,4.68,0,0,1,.26,1.12l1.18,10.86c0,.17,0,.31,0,.41s0,.2,0,.29a1.26,1.26,0,0,1-.16.63,1.59,1.59,0,0,1-.44.49,1.84,1.84,0,0,1-.66.32,2.72,2.72,0,0,1-1.63,0,1.71,1.71,0,0,1-.62-.37,1.27,1.27,0,0,1-.36-.65,5.19,5.19,0,0,1-.12-.79l-.64-7.61c0-.3,0-.59,0-.86s0-.53,0-.75,0-.5,0-.72h0l-2.57,9.4a8.68,8.68,0,0,1-.38,1.12,2.52,2.52,0,0,1-.5.75,1.8,1.8,0,0,1-.77.44,3.5,3.5,0,0,1-1.06.13,3.56,3.56,0,0,1-1.08-.13,1.71,1.71,0,0,1-.76-.44,2.19,2.19,0,0,1-.5-.75A7.43,7.43,0,0,1,74,19.4L71.43,10h-.05v.72c0,.21,0,.46,0,.74s0,.58,0,.89l-.56,7.62c0,.27-.06.53-.11.79a1.31,1.31,0,0,1-.37.67,1.54,1.54,0,0,1-.59.35,2.25,2.25,0,0,1-.77.12,2.78,2.78,0,0,1-.76-.1,1.87,1.87,0,0,1-.63-.28,1.49,1.49,0,0,1-.43-.47,1.19,1.19,0,0,1-.16-.62c0-.1,0-.21,0-.31s0-.25,0-.43l1.19-10.9A4.32,4.32,0,0,1,68.43,7.63Zm-9.18,4.14c-.1-.31-.18-.6-.26-.87l-.2-.71a5.32,5.32,0,0,1-.18-.68h0l-.17.68c-.06.2-.12.44-.2.71s-.15.56-.24.87l-1.12,3.76h3.63Zm-4,9.14a1.54,1.54,0,0,1-.34.54,1.49,1.49,0,0,1-.51.31,2,2,0,0,1-.73.11,2.57,2.57,0,0,1-.73-.1,2.24,2.24,0,0,1-.66-.32,1.7,1.7,0,0,1-.48-.52,1.3,1.3,0,0,1-.18-.69,2,2,0,0,1,0-.43c0-.14.1-.35.19-.62L55.35,8.85c.08-.24.16-.46.24-.65s.16-.35.25-.52a3.87,3.87,0,0,1,.27-.43,3.31,3.31,0,0,1,.31-.36,2.6,2.6,0,0,1,.93-.56,4.56,4.56,0,0,1,1.42-.2,4.45,4.45,0,0,1,1.41.2,2.64,2.64,0,0,1,.94.56c.11.12.22.24.31.36a3.87,3.87,0,0,1,.27.43,4.9,4.9,0,0,1,.24.52c.08.19.16.41.25.65l3.54,10.27a6.33,6.33,0,0,1,.18.62,1.84,1.84,0,0,1,.06.41,1.5,1.5,0,0,1-.2.75,1.71,1.71,0,0,1-.52.55,2.42,2.42,0,0,1-.69.32,3.08,3.08,0,0,1-.74.11,2.36,2.36,0,0,1-.75-.12,1.49,1.49,0,0,1-.55-.37,1.64,1.64,0,0,1-.36-.5c-.1-.23-.18-.47-.26-.71l-.55-1.7H56l-.54,1.7c-.08.27-.17.52-.25.73ZM43.61,15.46a1.55,1.55,0,0,1-.32-1,1.57,1.57,0,0,1,.32-1,1.11,1.11,0,0,1,.91-.38h3.77a1.65,1.65,0,0,1,1.2.41,1.6,1.6,0,0,1,.41,1.18v4.28a2.69,2.69,0,0,1-.16,1,2.26,2.26,0,0,1-.52.74,3.47,3.47,0,0,1-.64.44,5.48,5.48,0,0,1-1,.46,9.39,9.39,0,0,1-1.48.36,12.68,12.68,0,0,1-1.94.15,10.37,10.37,0,0,1-3.45-.53A6.86,6.86,0,0,1,38.11,20a6.59,6.59,0,0,1-1.57-2.39A8.86,8.86,0,0,1,36,14.4,9.89,9.89,0,0,1,36.57,11a7.36,7.36,0,0,1,1.69-2.66A7.47,7.47,0,0,1,41,6.61,11,11,0,0,1,44.85,6a9.48,9.48,0,0,1,1.5.12,8.62,8.62,0,0,1,1.24.3,6.47,6.47,0,0,1,.94.4,2.9,2.9,0,0,1,.6.44,1.85,1.85,0,0,1,.41.58,1.76,1.76,0,0,1,.12.72,1.4,1.4,0,0,1-.1.57,1.21,1.21,0,0,1-.27.43,1.07,1.07,0,0,1-.42.28,1.3,1.3,0,0,1-.52.1,1.44,1.44,0,0,1-.62-.14L47,9.5a8.25,8.25,0,0,0-1-.3,7.15,7.15,0,0,0-1.46-.13,5.23,5.23,0,0,0-1.84.31,3.7,3.7,0,0,0-1.41.93,4,4,0,0,0-.91,1.54A6.63,6.63,0,0,0,40.06,14a7.1,7.1,0,0,0,.31,2.2,4.26,4.26,0,0,0,.9,1.59,3.8,3.8,0,0,0,1.44,1,6,6,0,0,0,2.62.28,3.06,3.06,0,0,0,.51-.1,2.4,2.4,0,0,0,.38-.12v-3h-1.7A1.1,1.1,0,0,1,43.61,15.46Z" transform="translate(2.03 2.03)"/>
  <g class="cls-3">
    <g id="gameeLogo-badge-2">
      <rect id="Background" class="cls-4" x="1.58" y="1.58" width="28.9" height="28.9"/>
      <path id="Dots" class="cls-5" d="M28.2,30a.65.65,0,0,1,1.24-.42.67.67,0,0,1,0,.37s0,0,0,.05Zm-6,0a.66.66,0,0,1,.86-.35.67.67,0,0,1,.35.35Zm-1.87,0a.65.65,0,0,1,.42-.83.65.65,0,0,1,.82.42.63.63,0,0,1,0,.36l0,.05Zm-6,0a.66.66,0,0,1,.87-.34.64.64,0,0,1,.33.34Zm-1.88,0a.67.67,0,0,1,.43-.83.65.65,0,0,1,.82.43.73.73,0,0,1,0,.36l0,0Zm-6,0a.66.66,0,0,1,.87-.33.63.63,0,0,1,.33.33ZM4.55,30A.65.65,0,0,1,5,29.21a.64.64,0,0,1,.82.43.59.59,0,0,1,0,.35v0Zm-6,0a.66.66,0,0,1,.87-.33A.68.68,0,0,1-.25,30Zm4.61,0a.66.66,0,0,1-.48-.8A.65.65,0,0,1,4,29.53a.65.65,0,0,1-.64.5Zm7.88,0a.65.65,0,1,1,.79-.48.64.64,0,0,1-.63.5A.41.41,0,0,1,11.05,30Zm7.88,0a.66.66,0,0,1-.48-.8.65.65,0,1,1,.64.82Zm7.88,0a.65.65,0,1,1,.79-.48A.64.64,0,0,1,27,30l-.16,0Zm-25.5-.45a.66.66,0,0,1-.48-.79.67.67,0,0,1,.8-.48.66.66,0,0,1,.47.8.64.64,0,0,1-.63.49A.44.44,0,0,1,1.31,29.54Zm7.88,0a.65.65,0,1,1,.32-1.27.66.66,0,0,1-.16,1.29Zm7.88,0a.66.66,0,0,1-.48-.79.66.66,0,0,1,1.28.32.66.66,0,0,1-.64.49A.44.44,0,0,1,17.07,29.53Zm7.88,0a.65.65,0,0,1-.47-.8.64.64,0,0,1,.79-.47.66.66,0,0,1,.48.79.67.67,0,0,1-.64.5Zm-25.5-.45A.65.65,0,0,1-1,28.29a.65.65,0,0,1,.79-.48.66.66,0,0,1,.48.79.66.66,0,0,1-.64.5Zm7.89,0a.66.66,0,0,1-.48-.8.65.65,0,0,1,1.27.32.67.67,0,0,1-.64.5l-.16,0Zm7.88,0a.65.65,0,0,1-.48-.79A.65.65,0,1,1,16,28.6a.64.64,0,0,1-.63.49.41.41,0,0,1-.16,0Zm7.88,0a.65.65,0,1,1,.32-1.27.66.66,0,0,1-.16,1.29ZM5.48,28.61a.65.65,0,1,1,.32-1.26.66.66,0,0,1,.48.79.66.66,0,0,1-.64.49.44.44,0,0,1-.16,0Zm7.88,0a.65.65,0,0,1,.32-1.27.66.66,0,0,1,.48.79.67.67,0,0,1-.64.5l-.16,0Zm7.88,0a.64.64,0,0,1-.47-.79.66.66,0,0,1,.79-.48.66.66,0,0,1,.48.8.65.65,0,0,1-.64.49.47.47,0,0,1-.16,0Zm7.89,0a.65.65,0,0,1,.31-1.27.65.65,0,0,1-.16,1.29l-.16,0ZM-2,27.37a.65.65,0,0,1,.4.83h0a.64.64,0,0,1-.4.4Zm5.65.78a.65.65,0,0,1-.48-.79.65.65,0,1,1,1.27.32.64.64,0,0,1-.63.49A.41.41,0,0,1,3.63,28.15Zm7.88,0a.66.66,0,0,1-.48-.8.65.65,0,1,1,.64.82l-.16,0Zm7.88,0a.65.65,0,0,1-.48-.79.65.65,0,1,1,1.27.32.64.64,0,0,1-.63.49A.41.41,0,0,1,19.39,28.14Zm7.88,0a.67.67,0,0,1-.48-.8.66.66,0,0,1,.8-.47.66.66,0,0,1-.16,1.29Zm-25.5-.45a.65.65,0,1,1,.8-.48.67.67,0,0,1-.64.5Zm7.88,0a.64.64,0,0,1-.47-.79.66.66,0,0,1,.79-.48.67.67,0,0,1,.48.8.66.66,0,0,1-.64.49A.44.44,0,0,1,9.65,27.68Zm7.88,0a.65.65,0,0,1,.32-1.27.66.66,0,0,1,.48.79.67.67,0,0,1-.64.5Zm7.88,0a.65.65,0,1,1,.32-1.26.66.66,0,0,1,.48.79.66.66,0,0,1-.64.49A.47.47,0,0,1,25.41,27.67ZM-.08,27.23a.66.66,0,0,1-.48-.8A.65.65,0,0,1,.23,26a.65.65,0,0,1,.48.79.65.65,0,0,1-.63.5l-.16,0Zm7.88,0a.65.65,0,1,1,.79-.48.64.64,0,0,1-.63.5l-.16,0Zm7.88,0a.66.66,0,0,1-.48-.8.65.65,0,1,1,.64.82l-.16,0Zm7.88,0a.66.66,0,0,1-.48-.79.67.67,0,0,1,.8-.48.66.66,0,0,1,.47.8.64.64,0,0,1-.63.49l-.16,0Zm-25.5-.45a.16.16,0,0,1-.09,0V25.52a.65.65,0,0,1,.86.36.66.66,0,0,1-.36.85.58.58,0,0,1-.41,0Zm7.88,0a.65.65,0,1,1,.16,0Zm7.88,0a.65.65,0,0,1,.32-1.27A.65.65,0,0,1,14,26.77.44.44,0,0,1,13.82,26.75Zm7.88,0a.66.66,0,0,1-.47-.8.64.64,0,0,1,.79-.47.66.66,0,0,1,.48.79.67.67,0,0,1-.64.5Zm7.88,0a.64.64,0,0,1-.5-.77.65.65,0,0,1,.77-.51h.06l.12.05V26.7a.68.68,0,0,1-.44.05ZM4.09,26.29a.65.65,0,0,1-.48-.79.65.65,0,1,1,1.27.32.64.64,0,0,1-.63.49A.41.41,0,0,1,4.09,26.29Zm7.88,0a.65.65,0,0,1-.48-.79.65.65,0,0,1,.79-.48.65.65,0,0,1-.15,1.29Zm7.88,0a.65.65,0,0,1-.48-.79.65.65,0,1,1,1.27.32.64.64,0,0,1-.63.49A.41.41,0,0,1,19.85,26.28Zm7.88,0A.65.65,0,1,1,28.05,25a.66.66,0,0,1-.16,1.29Zm-25.5-.45a.65.65,0,1,1,.32-1.27.66.66,0,0,1-.16,1.29Zm7.88,0a.67.67,0,0,1-.48-.8.66.66,0,0,1,.8-.47.64.64,0,0,1,.47.79.66.66,0,0,1-.63.5.45.45,0,0,1-.16,0Zm7.88,0a.65.65,0,0,1,.32-1.27.65.65,0,0,1-.16,1.29Zm7.88,0a.66.66,0,0,1-.47-.8.65.65,0,0,1,.79-.47.66.66,0,0,1,.48.79.68.68,0,0,1-.64.5ZM.37,25.37A.65.65,0,0,1,.69,24.1a.65.65,0,0,1,.48.79.66.66,0,0,1-.64.5Zm7.89,0a.65.65,0,0,1-.48-.79.65.65,0,1,1,1.27.32.65.65,0,0,1-.64.49A.39.39,0,0,1,8.26,25.36Zm7.88,0a.65.65,0,1,1,.16,0Zm7.88,0a.65.65,0,0,1-.48-.79.65.65,0,1,1,1.27.32.64.64,0,0,1-.63.49A.41.41,0,0,1,24,25.35Zm-25.5-.45a.64.64,0,0,1-.45-.8.65.65,0,0,1,.81-.45.66.66,0,0,1,.45.81.65.65,0,0,1-.64.47l-.16,0Zm7.88,0a.65.65,0,1,1,.32-1.27.66.66,0,0,1-.16,1.29Zm7.88,0a.66.66,0,0,1-.48-.79.66.66,0,1,1,1.28.32.66.66,0,0,1-.64.49A.44.44,0,0,1,14.28,24.89Zm7.88,0a.65.65,0,0,1,.32-1.27.66.66,0,0,1,.48.79.67.67,0,0,1-.64.5Zm7.41-.8a.63.63,0,0,1,.45-.47v1.26a.65.65,0,0,1-.45-.79Zm-25,.35a.64.64,0,0,1-.47-.79.66.66,0,0,1,.79-.48.67.67,0,0,1,.48.8.66.66,0,0,1-.64.49A.47.47,0,0,1,4.55,24.44Zm7.88,0a.65.65,0,1,1,.8-.48.66.66,0,0,1-.64.5l-.16,0Zm7.89,0a.65.65,0,0,1-.48-.79.65.65,0,1,1,1.27.32.64.64,0,0,1-.63.49A.41.41,0,0,1,20.32,24.43Zm7.88,0a.22.22,0,0,0,.21-.21.21.21,0,0,0-.22-.21.21.21,0,0,0-.21.21.23.23,0,0,0,.21.21ZM2.7,24A.65.65,0,0,1,3,22.71.65.65,0,0,1,2.86,24Zm7.88,0a.67.67,0,0,1-.48-.8.65.65,0,0,1,.8-.47.64.64,0,0,1,.47.79.66.66,0,0,1-.63.5Zm7.88,0a.65.65,0,1,1,.32-1.27A.66.66,0,0,1,18.62,24l-.16,0Zm7.88,0a.67.67,0,0,1-.48-.8.66.66,0,0,1,.8-.47.64.64,0,0,1,.47.79.66.66,0,0,1-.63.5ZM.84,23.52a.65.65,0,0,1-.47-.8.64.64,0,0,1,.79-.47.66.66,0,0,1,.48.79.67.67,0,0,1-.64.5l-.16,0Zm7.88,0A.65.65,0,0,1,9,22.25a.66.66,0,0,1,.48.79.66.66,0,0,1-.64.49l-.16,0Zm7.88,0a.65.65,0,0,1,.32-1.27.65.65,0,0,1-.16,1.29Zm7.89,0a.65.65,0,0,1-.48-.79.65.65,0,1,1,.63.81.47.47,0,0,1-.16,0ZM-1,23.05a.65.65,0,0,1-.48-.79.66.66,0,0,1,.79-.48.66.66,0,0,1,.48.8.64.64,0,0,1-.63.49A.41.41,0,0,1-1,23.05Zm7.88,0a.65.65,0,0,1,.31-1.27A.65.65,0,0,1,7,23.07Zm7.88,0a.65.65,0,0,1-.48-.79.67.67,0,0,1,.8-.48.66.66,0,0,1,.47.8.64.64,0,0,1-.63.49A.41.41,0,0,1,14.75,23Zm7.88,0A.65.65,0,1,1,23,21.77a.66.66,0,0,1-.16,1.29ZM5,22.59a.65.65,0,1,1,.15,0Zm7.88,0a.65.65,0,0,1,.31-1.27.66.66,0,0,1,.48.8.64.64,0,0,1-.63.49.41.41,0,0,1-.16,0Zm7.88,0a.65.65,0,0,1-.48-.79.65.65,0,1,1,.64.81l-.16,0Zm7.88,0a.65.65,0,0,1-.48-.79.65.65,0,1,1,1.27.32.64.64,0,0,1-.63.49.41.41,0,0,1-.16,0Zm1.37-.3v.26a.57.57,0,0,1,0-.26ZM3.16,22.12a.65.65,0,1,1,.16,0A.44.44,0,0,1,3.16,22.12Zm7.88,0a.67.67,0,1,1,0,1.33.67.67,0,0,1,0-1.33Zm7.88,0a.66.66,0,0,1,.32-1.28.67.67,0,0,1,.48.8.66.66,0,0,1-.64.49Zm7.88,0a.66.66,0,1,1,.16,0l-.16,0ZM1.31,21.66a.65.65,0,0,1-.48-.79.66.66,0,0,1,.79-.48.66.66,0,0,1,.48.8.64.64,0,0,1-.63.49.41.41,0,0,1-.16,0Zm7.88,0a.66.66,0,0,1-.48-.8.65.65,0,1,1,.64.82Zm7.88,0a.65.65,0,0,1-.48-.79.65.65,0,1,1,1.27.32.64.64,0,0,1-.63.49A.41.41,0,0,1,17.07,21.65Zm7.88,0a.65.65,0,1,1,.32-1.27.66.66,0,0,1-.16,1.29l-.16,0ZM-.55,21.2A.66.66,0,0,1-1,20.41a.66.66,0,0,1,.8-.48.65.65,0,0,1,.47.79.65.65,0,0,1-.63.5Zm7.88,0a.65.65,0,1,1,.16,0,.44.44,0,0,1-.16,0Zm7.88,0a.65.65,0,0,1,.32-1.27.66.66,0,0,1,.48.79.67.67,0,0,1-.64.5Zm7.88,0a.64.64,0,0,1-.47-.79.66.66,0,0,1,.79-.48.67.67,0,0,1,.48.8.66.66,0,0,1-.64.49A.47.47,0,0,1,23.09,21.18ZM5.48,20.73A.65.65,0,0,1,5,19.94a.65.65,0,1,1,1.27.32.64.64,0,0,1-.63.49A.41.41,0,0,1,5.48,20.73Zm7.88,0a.65.65,0,0,1-.48-.79.65.65,0,0,1,.79-.48.65.65,0,0,1-.15,1.29Zm7.88,0a.65.65,0,0,1-.48-.79.65.65,0,1,1,1.27.32.64.64,0,0,1-.63.49A.41.41,0,0,1,21.24,20.72Zm7.88,0a.67.67,0,0,1-.48-.8.66.66,0,0,1,.8-.47.64.64,0,0,1,.47.79.65.65,0,0,1-.63.5ZM-2,19.49a.65.65,0,0,1,.39.83h0a.64.64,0,0,1-.39.4Zm5.64.78a.65.65,0,1,1,.16,0l-.16,0Zm7.88,0a.64.64,0,0,1-.47-.79.66.66,0,0,1,.79-.48.67.67,0,0,1,.48.8.66.66,0,0,1-.64.49A.44.44,0,0,1,11.5,20.26Zm7.88,0A.65.65,0,0,1,19.7,19a.66.66,0,0,1,.48.79.67.67,0,0,1-.64.5l-.16,0Zm7.89,0A.65.65,0,1,1,27.58,19a.66.66,0,0,1,.48.79.66.66,0,0,1-.64.49A.39.39,0,0,1,27.27,20.25Zm-25.5-.44a.66.66,0,0,1-.48-.8.65.65,0,0,1,.8-.47.64.64,0,0,1,.47.79.65.65,0,0,1-.63.5l-.16,0Zm7.88,0A.65.65,0,1,1,10,18.53a.66.66,0,0,1-.16,1.29Zm7.88,0a.67.67,0,0,1-.48-.8.66.66,0,0,1,.8-.47.64.64,0,0,1,.47.79.65.65,0,0,1-.63.5l-.16,0Zm7.88,0a.65.65,0,0,1-.47-.79.65.65,0,1,1,1.26.32.64.64,0,0,1-.63.49Zm-25.5-.45a.64.64,0,0,1-.47-.79.66.66,0,0,1,.79-.48.67.67,0,0,1,.48.8.66.66,0,0,1-.64.49A.47.47,0,0,1-.09,19.34Zm7.88,0a.65.65,0,0,1,.32-1.27.66.66,0,0,1,.48.79.67.67,0,0,1-.64.5Zm7.88,0a.65.65,0,0,1-.47-.79.66.66,0,0,1,.79-.48.67.67,0,0,1,.48.8.65.65,0,0,1-.64.49A.47.47,0,0,1,15.67,19.33Zm7.89,0a.66.66,0,0,1-.48-.8.65.65,0,0,1,1.27.32.66.66,0,0,1-.64.5Zm-25.5-.45-.08,0V17.64a.66.66,0,0,1,.85.37.66.66,0,0,1-.37.85.69.69,0,0,1-.4,0Zm7.88,0a.67.67,0,0,1-.48-.8.66.66,0,0,1,.8-.47.64.64,0,0,1,.47.79.65.65,0,0,1-.63.5Zm7.88,0a.65.65,0,1,1,.32-1.27A.66.66,0,0,1,14,18.89Zm7.88,0a.67.67,0,0,1-.48-.8.66.66,0,0,1,.8-.47.64.64,0,0,1,.47.79.65.65,0,0,1-.63.5Zm7.88,0a.65.65,0,1,1,.32-1.27l.13.05v1.17a.64.64,0,0,1-.45.05Zm-25.5-.45a.65.65,0,0,1,.32-1.27.65.65,0,0,1-.16,1.29A.47.47,0,0,1,4.08,18.41Zm7.88,0a.66.66,0,0,1-.47-.8.65.65,0,0,1,1.27.32.66.66,0,0,1-.64.5Zm7.89,0a.65.65,0,0,1-.48-.79.65.65,0,1,1,.63.81A.39.39,0,0,1,19.85,18.4Zm7.88,0a.65.65,0,1,1,.16,0ZM2.23,18a.65.65,0,0,1,.31-1.27A.65.65,0,0,1,2.39,18Zm7.88,0a.65.65,0,1,1,.32-1.27.64.64,0,0,1,.47.79.65.65,0,0,1-.63.5Zm7.88,0a.65.65,0,1,1,.16,0,.44.44,0,0,1-.16,0Zm7.88,0A.65.65,0,1,1,26,18l-.16,0ZM.37,17.49a.65.65,0,0,1,.32-1.27.66.66,0,0,1,.48.79.67.67,0,0,1-.64.5Zm7.88,0a.65.65,0,1,1,.32-1.26.66.66,0,0,1,.48.79.66.66,0,0,1-.64.49H8.25Zm7.89,0a.65.65,0,0,1,.31-1.27.65.65,0,0,1,.48.79.66.66,0,0,1-.64.5Zm7.88,0a.65.65,0,0,1-.48-.79.65.65,0,1,1,1.27.32.64.64,0,0,1-.63.49A.41.41,0,0,1,24,17.47ZM-1.48,17a.66.66,0,0,1-.48-.8.65.65,0,0,1,.79-.47.65.65,0,0,1,.48.79.65.65,0,0,1-.63.5l-.16,0ZM6.4,17a.65.65,0,0,1,.31-1.27A.65.65,0,0,1,6.56,17Zm7.88,0a.67.67,0,0,1-.48-.8.65.65,0,0,1,.8-.47.64.64,0,0,1,.47.79.65.65,0,0,1-.63.5Zm7.88,0a.66.66,0,0,1-.47-.8.64.64,0,0,1,.79-.47.66.66,0,0,1,.48.79.66.66,0,0,1-.64.49Zm7.41-.8a.66.66,0,0,1,.46-.48V17a.66.66,0,0,1-.46-.79Zm-25,.34a.65.65,0,1,1,.79-.48.64.64,0,0,1-.63.5Zm7.88,0a.66.66,0,0,1-.48-.8.65.65,0,1,1,.64.82Zm7.88,0a.65.65,0,1,1,.32-1.27.66.66,0,0,1-.16,1.29l-.16,0Zm7.88,0a.67.67,0,0,1-.48-.8.66.66,0,0,1,.8-.47.64.64,0,0,1,.47.79.65.65,0,0,1-.63.5ZM2.69,16.1A.65.65,0,0,1,3,14.83a.66.66,0,0,1,.48.79.67.67,0,0,1-.64.5l-.16,0Zm7.88,0a.65.65,0,0,1,.32-1.26.66.66,0,0,1,.48.79.66.66,0,0,1-.64.49.39.39,0,0,1-.15,0Zm7.89,0a.66.66,0,0,1-.48-.8.65.65,0,0,1,1.27.32.66.66,0,0,1-.64.5l-.15,0Zm7.88,0a.65.65,0,0,1-.48-.79.65.65,0,1,1,1.27.32.64.64,0,0,1-.63.49A.41.41,0,0,1,26.34,16.08Zm-1.86-.44a.65.65,0,1,1,.15,0Zm-23.64,0a.65.65,0,0,1-.48-.79.65.65,0,1,1,1.27.32.64.64,0,0,1-.63.49A.41.41,0,0,1,.84,15.63Zm7.88,0A.65.65,0,1,1,9,14.36a.66.66,0,0,1-.16,1.29Zm7.88,0a.66.66,0,0,1-.48-.79.67.67,0,0,1,.8-.48.66.66,0,0,1,.47.8.64.64,0,0,1-.63.49A.44.44,0,0,1,16.6,15.62ZM-1,15.17a.65.65,0,0,1-.47-.79A.65.65,0,0,1-.7,13.9a.66.66,0,0,1,.48.79.66.66,0,0,1-.64.5Zm7.88,0a.66.66,0,0,1-.47-.8.64.64,0,0,1,.79-.47.66.66,0,0,1,.48.79.67.67,0,0,1-.64.5Zm7.88,0a.66.66,0,1,1,.16,0Zm7.89,0a.66.66,0,0,1-.48-.8.65.65,0,0,1,1.27.32.66.66,0,0,1-.64.5ZM5,14.71a.67.67,0,0,1-.48-.8.66.66,0,0,1,.8-.47.64.64,0,0,1,.47.79.65.65,0,0,1-.63.5Zm7.88,0a.65.65,0,1,1,.32-1.27.65.65,0,0,1,.47.8.64.64,0,0,1-.63.49Zm7.88,0a.67.67,0,0,1-.48-.8.66.66,0,0,1,1.28.32.67.67,0,0,1-.64.5Zm7.88,0A.65.65,0,0,1,29,13.42a.65.65,0,0,1-.16,1.29l-.16,0ZM30,14.37v.3a.76.76,0,0,1,0-.3ZM3.16,14.24a.64.64,0,0,1-.48-.79.65.65,0,1,1,.63.81A.39.39,0,0,1,3.16,14.24Zm7.88,0a.65.65,0,1,1,.79-.48.66.66,0,0,1-.63.5Zm7.88,0a.65.65,0,0,1-.48-.79.65.65,0,1,1,1.27.32.64.64,0,0,1-.63.49A.41.41,0,0,1,18.92,14.23Zm7.88,0A.65.65,0,0,1,27.11,13,.65.65,0,0,1,27,14.25ZM1.3,13.78a.65.65,0,1,1,.32-1.26.65.65,0,0,1-.16,1.28A.41.41,0,0,1,1.3,13.78Zm7.88,0a.65.65,0,1,1,.32-1.27.66.66,0,0,1-.16,1.29Zm7.88,0a.66.66,0,0,1-.48-.79.66.66,0,1,1,1.28.32.66.66,0,0,1-.64.49A.44.44,0,0,1,17.06,13.77Zm7.88,0a.65.65,0,0,1,.32-1.27.66.66,0,0,1,.48.79.67.67,0,0,1-.64.5Zm-25.5-.45A.65.65,0,0,1-1,12.53a.64.64,0,0,1,.79-.48.65.65,0,0,1,.48.79.66.66,0,0,1-.64.5Zm7.88,0a.65.65,0,1,1,.32-1.26.65.65,0,0,1-.16,1.28A.47.47,0,0,1,7.32,13.31Zm7.89,0a.65.65,0,1,1,.79-.48.66.66,0,0,1-.64.5Zm7.88,0a.65.65,0,0,1-.48-.79.65.65,0,1,1,1.27.32.64.64,0,0,1-.63.49.41.41,0,0,1-.16,0ZM5.47,12.85A.64.64,0,0,1,5,12.06a.66.66,0,0,1,.79-.48.67.67,0,0,1,.48.8.66.66,0,0,1-.64.49A.47.47,0,0,1,5.47,12.85Zm7.88,0a.66.66,0,0,1-.47-.8.65.65,0,0,1,1.27.32.66.66,0,0,1-.64.5Zm7.89,0a.64.64,0,0,1-.48-.79.65.65,0,1,1,.63.81A.39.39,0,0,1,21.24,12.84Zm7.88,0a.66.66,0,0,1-.48-.8.65.65,0,1,1,.64.82ZM-2,11.61a.66.66,0,0,1,.39.84h0a.68.68,0,0,1-.39.39Zm5.64.78a.65.65,0,1,1,.79-.48.64.64,0,0,1-.63.5l-.16,0Zm7.88,0a.67.67,0,0,1-.48-.8.65.65,0,0,1,.8-.47.64.64,0,0,1,.47.79.65.65,0,0,1-.63.5l-.16,0Zm7.88,0a.65.65,0,0,1-.48-.79.66.66,0,0,1,.8-.48.66.66,0,0,1-.16,1.29l-.16,0Zm7.88,0a.66.66,0,0,1-.47-.8.65.65,0,0,1,1.26.32.66.66,0,0,1-.63.5l-.16,0Zm-25.5-.45a.65.65,0,1,1,.16,0l-.16,0Zm7.88,0a.64.64,0,0,1-.47-.79.66.66,0,0,1,.79-.48.67.67,0,0,1,.48.8.66.66,0,0,1-.64.49A.47.47,0,0,1,9.64,11.92Zm7.88,0a.65.65,0,0,1,.32-1.27.66.66,0,0,1,.48.79.67.67,0,0,1-.64.5Zm7.88,0a.65.65,0,0,1,.32-1.27.65.65,0,0,1-.16,1.29.47.47,0,0,1-.16,0ZM-.1,11.47a.66.66,0,0,1-.47-.8.65.65,0,0,1,.79-.47A.66.66,0,0,1,.7,11a.65.65,0,0,1-.64.49Zm7.89,0A.65.65,0,1,1,8.58,11a.66.66,0,0,1-.64.5Zm7.88,0a.65.65,0,0,1-.48-.79.65.65,0,1,1,1.27.32.64.64,0,0,1-.63.49h-.16Zm7.88,0a.65.65,0,1,1,.32-1.27.66.66,0,0,1-.16,1.29ZM-1.95,11-2,11V9.76a.65.65,0,0,1,.85.37.66.66,0,0,1-.38.85.6.6,0,0,1-.4,0Zm7.88,0a.65.65,0,1,1,.8-.48.66.66,0,0,1-.64.5Zm7.89,0a.65.65,0,0,1-.48-.79.65.65,0,1,1,1.27.32A.65.65,0,0,1,14,11,.39.39,0,0,1,13.82,11Zm7.88,0a.65.65,0,1,1,.16,0Zm7.88,0a.65.65,0,0,1-.48-.79.66.66,0,0,1,.8-.48l.13,0v1.18a.64.64,0,0,1-.45,0Zm-25.5-.44A.65.65,0,1,1,4.4,9.27a.64.64,0,0,1,.47.79.66.66,0,0,1-.63.5Zm7.88,0a.65.65,0,1,1,.32-1.27.66.66,0,0,1-.16,1.29Zm7.88,0a.67.67,0,0,1-.48-.8.66.66,0,0,1,.8-.47.64.64,0,0,1,.47.79.66.66,0,0,1-.63.5l-.16,0Zm7.88,0a.65.65,0,0,1-.47-.79.65.65,0,1,1,1.26.32.64.64,0,0,1-.63.49ZM2.23,10.07a.65.65,0,0,1-.48-.79.65.65,0,1,1,.63.81.39.39,0,0,1-.15,0Zm7.88,0a.65.65,0,1,1,.16,0l-.16,0Zm7.88,0a.65.65,0,1,1,.79-.48.64.64,0,0,1-.63.5.41.41,0,0,1-.16,0Zm7.88,0a.66.66,0,0,1-.48-.8.65.65,0,0,1,.8-.47.64.64,0,0,1,.47.79.65.65,0,0,1-.63.5l-.16,0ZM.37,9.61A.65.65,0,1,1,.69,8.34a.65.65,0,0,1,.47.79.65.65,0,0,1-.63.5l-.16,0Zm7.88,0a.65.65,0,0,1-.48-.79A.65.65,0,1,1,9,9.13a.64.64,0,0,1-.63.49H8.25Zm7.88,0a.65.65,0,1,1,.32-1.27.64.64,0,0,1,.47.79.65.65,0,0,1-.63.5Zm7.88,0a.66.66,0,0,1-.48-.79.66.66,0,0,1,.8-.48.65.65,0,0,1,.47.8.64.64,0,0,1-.63.49A.44.44,0,0,1,24,9.59Zm-25.5-.45A.64.64,0,0,1-2,8.35a.64.64,0,0,1,.79-.47.66.66,0,0,1,.48.79.66.66,0,0,1-.64.49.38.38,0,0,1-.15,0Zm7.88,0a.65.65,0,1,1,.8-.48.66.66,0,0,1-.64.5Zm7.89,0a.66.66,0,0,1-.48-.8.65.65,0,1,1,.64.82Zm7.88,0a.66.66,0,0,1-.48-.79.67.67,0,0,1,.8-.48.66.66,0,0,1,.47.8.64.64,0,0,1-.63.49A.41.41,0,0,1,22.16,9.13Zm7.4-.8A.66.66,0,0,1,30,7.86V9.12a.65.65,0,0,1-.47-.79Zm-25,.35a.65.65,0,1,1,.32-1.27A.66.66,0,0,1,4.7,8.7l-.16,0Zm7.88,0a.65.65,0,1,1,.16,0,.47.47,0,0,1-.16,0Zm7.88,0a.65.65,0,0,1-.47-.79.65.65,0,1,1,1.26.32.64.64,0,0,1-.63.49l-.16,0Zm7.88,0a.66.66,0,0,1-.47-.8.64.64,0,0,1,.79-.47.66.66,0,0,1,.48.79.68.68,0,0,1-.64.5l-.16,0ZM2.68,8.22a.65.65,0,0,1-.47-.8.65.65,0,0,1,1.27.32.66.66,0,0,1-.64.5l-.15,0Zm7.89,0a.64.64,0,0,1-.48-.79.65.65,0,1,1,.63.81.39.39,0,0,1-.15,0Zm7.88,0a.66.66,0,0,1-.48-.8.65.65,0,1,1,.64.82Zm7.88,0a.66.66,0,0,1-.48-.79.67.67,0,0,1,.8-.48.66.66,0,0,1,.47.8.64.64,0,0,1-.63.49A.44.44,0,0,1,26.33,8.2ZM.83,7.76A.67.67,0,0,1,.35,7a.66.66,0,0,1,.8-.47.64.64,0,0,1,.47.79.65.65,0,0,1-.63.5Zm7.88,0a.66.66,0,1,1,.16,0Zm7.88,0a.66.66,0,0,1,.32-1.28.66.66,0,0,1-.16,1.3Zm7.88,0a.66.66,0,1,1,.16,0ZM-1,7.29A.64.64,0,0,1-1.5,6.5.66.66,0,0,1-.71,6a.66.66,0,0,1,.48.8.65.65,0,0,1-.64.49.39.39,0,0,1-.15,0Zm7.88,0a.66.66,0,0,1-.48-.8A.65.65,0,1,1,7,7.31l-.16,0Zm7.88,0a.65.65,0,0,1-.48-.79.65.65,0,1,1,1.27.32.64.64,0,0,1-.63.49A.41.41,0,0,1,14.74,7.28Zm7.88,0a.65.65,0,1,1,.16,0l-.16,0ZM5,6.83A.66.66,0,0,1,4.53,6a.65.65,0,0,1,.79-.47.66.66,0,0,1,.48.79.67.67,0,0,1-.64.5Zm7.89,0A.65.65,0,0,1,12.41,6a.66.66,0,0,1,.79-.48.67.67,0,0,1,.48.8.66.66,0,0,1-.64.49l-.15,0Zm7.88,0a.66.66,0,0,1-.48-.8.65.65,0,1,1,.64.82l-.16,0Zm7.88,0a.65.65,0,1,1,.79-.48.64.64,0,0,1-.63.5l-.16,0ZM30,6.48h0v.34a.62.62,0,0,1,0-.33ZM3.15,6.36a.66.66,0,0,1-.48-.79.67.67,0,0,1,.8-.48.66.66,0,0,1,.47.8.64.64,0,0,1-.63.49.41.41,0,0,1-.16,0Zm7.88,0a.65.65,0,1,1,.32-1.27.66.66,0,0,1-.16,1.29Zm7.88,0a.66.66,0,0,1-.48-.79.67.67,0,0,1,.8-.48.66.66,0,0,1,.47.8.64.64,0,0,1-.63.49.44.44,0,0,1-.16,0Zm7.88,0a.65.65,0,0,1,.32-1.27.66.66,0,0,1,.48.79.67.67,0,0,1-.64.5l-.16,0ZM1.29,5.9a.65.65,0,1,1,.8-.48.66.66,0,0,1-.64.5Zm7.89,0a.66.66,0,0,1-.48-.8.65.65,0,1,1,.64.82Zm7.88,0a.65.65,0,0,1-.48-.79.65.65,0,1,1,1.27.32.64.64,0,0,1-.63.49l-.16,0Zm7.88,0a.66.66,0,0,1-.48-.8.65.65,0,0,1,.8-.47.64.64,0,0,1,.47.79.65.65,0,0,1-.63.5l-.16,0ZM-.56,5.44A.66.66,0,0,1-1,4.65a.66.66,0,0,1,.8-.48A.65.65,0,0,1,.23,5a.65.65,0,0,1-.63.5l-.16,0Zm7.88,0a.66.66,0,0,1-.48-.79.67.67,0,0,1,.8-.48.66.66,0,0,1,.47.8.64.64,0,0,1-.63.49.44.44,0,0,1-.16,0Zm7.88,0a.65.65,0,1,1,.16,0l-.16,0Zm7.88,0a.65.65,0,0,1,.32-1.27.67.67,0,0,1,.48.8.66.66,0,0,1-.64.49.44.44,0,0,1-.16,0ZM5.47,5A.65.65,0,0,1,5,4.18a.65.65,0,1,1,1.27.32A.64.64,0,0,1,5.63,5L5.47,5Zm7.88,0a.66.66,0,0,1-.48-.8.65.65,0,1,1,.64.82l-.16,0Zm7.88,0a.65.65,0,0,1,.31-1.27A.65.65,0,0,1,21.39,5,.41.41,0,0,1,21.23,5Zm7.88,0a.66.66,0,0,1-.48-.8.65.65,0,0,1,.8-.47.64.64,0,0,1,.47.79.65.65,0,0,1-.63.5l-.16,0ZM-2,3.73a.66.66,0,0,1,.38.84A.69.69,0,0,1-2,5Zm5.63.78a.65.65,0,0,1,.32-1.27A.66.66,0,0,1,4.41,4a.67.67,0,0,1-.64.5l-.16,0Zm7.88,0a.66.66,0,0,1-.47-.8A.65.65,0,0,1,12.29,4a.65.65,0,0,1-.64.49.39.39,0,0,1-.15,0Zm7.89,0a.65.65,0,1,1,.16,0Zm7.88,0a.65.65,0,1,1,.16,0A.41.41,0,0,1,27.26,4.49ZM1.76,4.05a.66.66,0,0,1-.48-.8.65.65,0,0,1,.79-.47.64.64,0,0,1,.48.79.65.65,0,0,1-.63.5l-.16,0ZM9.64,4A.65.65,0,1,1,10,2.77.66.66,0,0,1,9.8,4.06L9.64,4Zm7.88,0a.67.67,0,0,1-.48-.8.66.66,0,0,1,.8-.47.64.64,0,0,1,.47.79.65.65,0,0,1-.63.5ZM25.4,4a.65.65,0,1,1,.32-1.27.66.66,0,0,1-.16,1.29L25.4,4ZM-.1,3.58a.64.64,0,0,1-.47-.79.65.65,0,0,1,.79-.48.67.67,0,0,1,.48.8.66.66,0,0,1-.64.49A.44.44,0,0,1-.1,3.58Zm7.88,0a.65.65,0,0,1-.47-.8.65.65,0,0,1,1.27.32.66.66,0,0,1-.64.5Zm7.88,0A.66.66,0,0,1,16,2.3a.67.67,0,0,1,.48.8.65.65,0,0,1-.64.49h-.16Zm7.89,0a.65.65,0,0,1-.48-.79.65.65,0,1,1,1.27.31.66.66,0,0,1-.64.5Zm-25.5-.45L-2,3.1V1.87a.66.66,0,0,1,.84.38.66.66,0,0,1-.38.85.58.58,0,0,1-.39,0Zm7.88,0a.65.65,0,0,1-.48-.79.65.65,0,1,1,.64.81l-.16,0Zm7.88,0a.65.65,0,0,1-.48-.79.66.66,0,0,1,.8-.48.65.65,0,0,1,.47.8.64.64,0,0,1-.63.49A.41.41,0,0,1,13.81,3.11Zm7.88,0a.67.67,0,0,1-.48-.8.66.66,0,0,1,.8-.47.64.64,0,0,1,.47.79.65.65,0,0,1-.63.5Zm7.88,0a.65.65,0,0,1,.32-1.27l.14,0V3.05a.67.67,0,0,1-.46.05ZM4.07,2.66a.66.66,0,0,1-.47-.8.64.64,0,0,1,.79-.47.66.66,0,0,1,.48.79.66.66,0,0,1-.64.49.47.47,0,0,1-.16,0Zm7.88,0a.65.65,0,0,1,.32-1.27.66.66,0,0,1,.48.79.67.67,0,0,1-.64.5Zm7.88,0a.71.71,0,1,1,.16,0h-.16Zm7.89,0a.65.65,0,1,1,.79-.48.66.66,0,0,1-.64.5ZM2.22,2.19A.65.65,0,1,1,3,1.71a.64.64,0,0,1-.63.5Zm7.88,0a.66.66,0,0,1-.48-.8.65.65,0,1,1,.64.82l-.16,0Zm7.88,0a.65.65,0,1,1,.79-.48.64.64,0,0,1-.63.5l-.16,0Zm7.88,0a.67.67,0,0,1-.48-.8.66.66,0,0,1,.8-.47.64.64,0,0,1,.47.79.65.65,0,0,1-.63.5l-.16,0ZM.36,1.73A.66.66,0,0,1-.12.94.66.66,0,0,1,.68.46a.65.65,0,0,1,.47.79.65.65,0,0,1-.63.5Zm7.88,0A.64.64,0,0,1,7.77.93.65.65,0,0,1,8.56.45a.67.67,0,0,1,.48.8.66.66,0,0,1-.64.49A.44.44,0,0,1,8.24,1.72Zm7.88,0a.66.66,0,0,1-.47-.8.64.64,0,0,1,.79-.47.66.66,0,0,1,.48.79.67.67,0,0,1-.64.5Zm7.88,0a.64.64,0,0,1-.47-.79.66.66,0,0,1,.79-.48.67.67,0,0,1,.48.8.66.66,0,0,1-.64.49A.47.47,0,0,1,24,1.71ZM-1.49,1.26A.64.64,0,0,1-2,.47.66.66,0,0,1-1.18,0,.66.66,0,0,1-.7.79a.65.65,0,0,1-.64.49A.39.39,0,0,1-1.49,1.26Zm7.88,0A.66.66,0,0,1,5.91.47.66.66,0,0,1,7.19.78a.67.67,0,0,1-.64.5Zm7.88,0a.66.66,0,0,1-.47-.8A.64.64,0,0,1,14.59,0a.66.66,0,0,1,.48.79.66.66,0,0,1-.64.49Zm7.88,0a.65.65,0,0,1-.47-.79A.65.65,0,1,1,23,.77a.67.67,0,0,1-.64.5Zm7.41-.8A.66.66,0,0,1,30,0V1.25a.66.66,0,0,1-.47-.8ZM4.54.8A.65.65,0,0,1,4.06,0a.65.65,0,0,1,.79-.48.65.65,0,0,1,.48.79.65.65,0,0,1-.63.5L4.54.8Zm7.88,0A.66.66,0,0,1,11.94,0a.65.65,0,0,1,.79-.47.65.65,0,0,1,.48.79.64.64,0,0,1-.63.49A.41.41,0,0,1,12.42.79Zm7.88,0A.66.66,0,0,1,19.82,0a.66.66,0,0,1,.8-.48.65.65,0,0,1,.47.79.65.65,0,0,1-.63.5Zm7.88,0A.65.65,0,0,1,27.7,0a.67.67,0,0,1,.8-.48.66.66,0,0,1,.47.8.64.64,0,0,1-.63.49A.41.41,0,0,1,28.18.78ZM2.68.34a.67.67,0,0,1-.48-.8A.66.66,0,0,1,3-.93a.64.64,0,0,1,.47.79.65.65,0,0,1-.63.5l-.16,0Zm7.88,0a.66.66,0,0,1-.48-.79.66.66,0,0,1,.8-.48.65.65,0,0,1,.47.79.64.64,0,0,1-.63.5l-.16,0Zm7.88,0A.66.66,0,0,1,18-.47a.64.64,0,0,1,.79-.47.65.65,0,0,1,.48.79.66.66,0,0,1-.64.5Zm7.89,0a.65.65,0,0,1-.48-.79.66.66,0,0,1,.79-.48.66.66,0,0,1,.48.8.65.65,0,0,1-.64.49ZM.83-.13A.65.65,0,0,1,.35-.92a.66.66,0,0,1,.79-.48.66.66,0,0,1,.48.8A.64.64,0,0,1,1-.11a.41.41,0,0,1-.16,0Zm7.88,0a.65.65,0,0,1-.48-.79A.65.65,0,0,1,9-1.4a.65.65,0,0,1,.48.79.65.65,0,0,1-.63.5l-.16,0Zm7.88,0a.66.66,0,0,1-.48-.79.67.67,0,0,1,.8-.48.66.66,0,0,1,.47.8.64.64,0,0,1-.63.49.44.44,0,0,1-.16,0Zm7.88,0A.66.66,0,0,1,24-.94a.66.66,0,0,1,.8-.47.66.66,0,0,1,.47.8.66.66,0,0,1-.64.49l-.16,0ZM-1-.59a.66.66,0,0,1-.47-.8.66.66,0,0,1,.8-.47.66.66,0,0,1,.47.8.66.66,0,0,1-.64.49L-1-.59Zm7.88,0a.64.64,0,0,1-.47-.79.64.64,0,0,1,.79-.47.66.66,0,0,1,.48.79A.66.66,0,0,1,7-.58.44.44,0,0,1,6.85-.6Zm7.88,0a.65.65,0,0,1-.47-.79.66.66,0,0,1,.79-.48.66.66,0,0,1,.48.79.67.67,0,0,1-.64.5Zm7.89,0a.65.65,0,0,1-.48-.79.65.65,0,0,1,.79-.48.65.65,0,0,1,.48.79.66.66,0,0,1-.63.5ZM5-1a.66.66,0,0,1-.48-.8h0A.87.87,0,0,1,4.59-2H5.72a.63.63,0,0,1-.23.89A.64.64,0,0,1,5-1Zm7.88,0a.66.66,0,0,1-.48-.79A.87.87,0,0,1,12.47-2h1.14a.65.65,0,0,1-.24.89.65.65,0,0,1-.49.07Zm7.88,0a.67.67,0,0,1-.48-.8A.77.77,0,0,1,20.35-2h1.14a.65.65,0,0,1-.24.89A.69.69,0,0,1,20.76-1.06Zm7.88,0a.65.65,0,0,1-.47-.8A.47.47,0,0,1,28.23-2h1.14a.65.65,0,0,1-.25.89A.66.66,0,0,1,28.64-1.07ZM30-1.4V-1a.6.6,0,0,1,0-.35ZM3.15-1.52A.66.66,0,0,1,2.66-2H4v0a.65.65,0,0,1-.79.48Zm7.88,0a.66.66,0,0,1-.49-.5h1.29v0a.65.65,0,0,1-.79.48Zm7.88,0A.68.68,0,0,1,18.42-2h1.29v0a.65.65,0,0,1-.79.47Zm7.88,0A.65.65,0,0,1,26.31-2h1.27a.66.66,0,0,1-.79.48ZM1.29-2,1.16-2h.57a.66.66,0,0,1-.44,0ZM9.17-2a.35.35,0,0,1-.11,0H9.6A.63.63,0,0,1,9.17-2Zm7.88,0L17-2h.52A.67.67,0,0,1,17.05-2Zm7.88,0-.09,0h.5a.64.64,0,0,1-.41,0Z" transform="translate(2.03 2.03)"/>
      <path id="Shape_new" data-name="Shape new" class="cls-6" d="M23.31,17.12v-6.2a3.83,3.83,0,0,0-1.92-3.34L15.92,4.41a3.82,3.82,0,0,0-3.84,0L6.61,7.58a3.83,3.83,0,0,0-1.92,3.34v6.2a3.83,3.83,0,0,0,1.92,3.34l5.47,3.17a3.82,3.82,0,0,0,3.84,0l5.47-3.17A3.85,3.85,0,0,0,23.31,17.12Z" transform="translate(2.03 2.03)"/>
      <path id="G" class="cls-7" d="M14.12,15.12a1.24,1.24,0,0,1-.25-.83,1.27,1.27,0,0,1,.25-.84.88.88,0,0,1,.73-.3h3a1.27,1.27,0,0,1,.95.32,1.29,1.29,0,0,1,.34.95v3.44a2.11,2.11,0,0,1-.14.78,1.53,1.53,0,0,1-.41.59,2.34,2.34,0,0,1-.51.36,4.77,4.77,0,0,1-.83.37,9.83,9.83,0,0,1-1.19.29,8.91,8.91,0,0,1-1.55.11,8.08,8.08,0,0,1-2.76-.42,5.46,5.46,0,0,1-2-1.21,5.1,5.1,0,0,1-1.26-1.91A7.39,7.39,0,0,1,8,14.27a7.91,7.91,0,0,1,.46-2.73A5.85,5.85,0,0,1,9.85,9.4,6.2,6.2,0,0,1,12.06,8a8.78,8.78,0,0,1,3-.49,6.94,6.94,0,0,1,1.2.1,5.5,5.5,0,0,1,1,.24,5,5,0,0,1,.75.33,1.85,1.85,0,0,1,.48.35,1.47,1.47,0,0,1,.32.46,1.27,1.27,0,0,1,.1.58,1.07,1.07,0,0,1-.08.46,1,1,0,0,1-.22.34.86.86,0,0,1-.33.23,1.16,1.16,0,0,1-.42.07,1,1,0,0,1-.49-.11l-.57-.24A5.78,5.78,0,0,0,16,10.1,5,5,0,0,0,14.86,10a3.84,3.84,0,0,0-1.46.25,3,3,0,0,0-1.13.74,3.27,3.27,0,0,0-.73,1.23A5.44,5.44,0,0,0,11.28,14a5.87,5.87,0,0,0,.25,1.77A3.41,3.41,0,0,0,12.25,17a3,3,0,0,0,1.15.78,4.23,4.23,0,0,0,1.54.26,5.07,5.07,0,0,0,.55,0l.41-.08.31-.1V15.43H14.85a.88.88,0,0,1-.73-.31" transform="translate(2.03 2.03)"/>
    </g>
  </g>
</svg>
